<?xml version="1.0" encoding="UTF-8"?>
<svg xmlns="http://www.w3.org/2000/svg" version="1.1" xmlns:xlink="http://www.w3.org/1999/xlink" viewBox="0 0 595.3 841.9">
  <defs>
    <style>
      .cls-1 {
        fill: url(#linear-gradient);
      }

      .cls-1, .cls-2, .cls-3, .cls-4, .cls-5 {
        stroke: #231f20;
        stroke-miterlimit: 10;
      }

      .cls-6 {
        fill: #231f20;
      }

      .cls-2 {
        fill: #939598;
      }

      .cls-3 {
        fill: #bcbec0;
      }

      .cls-7 {
        opacity: .9;
      }

      .cls-4 {
        fill: #d1d3d4;
      }

      .cls-5 {
        fill: #808285;
      }
    </style>
    <linearGradient id="linear-gradient" x1="185.9" y1="646.7" x2="185.1" y2="777.2" gradientTransform="translate(0 844) scale(1 -1)" gradientUnits="userSpaceOnUse">
      <stop offset=".4" stop-color="#c1e7f1"/>
      <stop offset="1" stop-color="#6ac3e2"/>
    </linearGradient>
  </defs>
  <!-- Generator: Adobe Illustrator 28.7.5, SVG Export Plug-In . SVG Version: 1.2.0 Build 176)  -->
  <g>
    <g id="Layer_1">
      <g id="Layer_1-2" data-name="Layer_1">
        <circle class="cls-1" cx="185.5" cy="133.1" r="64.7"/>
        <path class="cls-3" d="M178.3,96.1c.2,4.1,3.7,5.8,9,5,4.5-.7,9.5-1.7,8.4-4.6-.7-1.8-4.2-6.7-8.3-5.9-4.9.9-9.1,4.3-9.1,5.5Z"/>
        <path class="cls-4" d="M170.5,106.2c1.7,3.8,11.6,8.1,16.9,8.4,6,.3,13.5-2.9,13.3-6.3-.2-3.6-7.5-8.6-13.3-7.8-7.4,1-18.4,2.4-16.9,5.7h0Z"/>
        <path class="cls-5" d="M204.2,119c-1.1,5.6-9.7,9.1-18.3,8.5-9-.6-13-2.4-14.8-6.1-2.1-4.3.4-9.2,13.1-8.9,9,.2,20.7,2.4,20,6.5Z"/>
        <path class="cls-3" d="M210.1,136.3c-1.2,6.5-17.7,11.1-29.2,11.1s-22.5-9-22.5-15.6,11-6.4,22.5-6.6c11.8-.2,30.2,5.6,29.2,11.1Z"/>
        <path class="cls-2" d="M220.4,153.4c.7,8.4-14,13.2-33.4,11.6-21.5-1.8-33.8-1.6-35.4-7.8-1.8-6.9,13.7-16.2,35.4-15.3,18.4.7,32.8,5.2,33.4,11.6h0Z"/>
        <g class="cls-7">
          <path class="cls-6" d="M137.9,166.6c6.6-1.1,16.4-.9,23.1-1.3,19.3-.5,38.7-.8,58,.4,3.2.3,6.4.2,9.5,1.2,0,0,.1.1.2.2,0,.2.4.1.1.9-.4.5-.4.3-.5.4-8.4.7-16.9.3-25.3.5-11.6.1-23.1.2-34.7.7-3.4.2-7.6.4-10.5,1.1,0,0,0-.1,0-.2,0,0-.2-.6-.3-.5,1.2.2,4.1.3,5.6.4,3.6.1,13.6.4,17.4.4,7.7.2,15.4.3,23.2.6,2.4.1,4.9.2,7.3.5.3,0,.6,0,.9.3,2.4,3.2-13.4,3.1-15.1,3.3-9.7.4-19.3.3-28.9.8-1.2,0-2.9.2-3.9.4.1-.1.1-.5,0-.6,3.8,1.5,8.2,1.1,12.2,1.2,5.8,0,11.6-.1,17.4,0,2,.2,4.1,0,6,.9.2.2.5.5.4.9,0,.3-.3.4-.5.5-1.7.6-3.4.7-5.1.9-5.8.7-11.5,1.1-17.3,1.8-2.2.3-4.5.4-6.6,1.2,0,0,0,0,0,0,0,0,0-.2,0-.3,0-.1,0,0,0,0,1.1.5,2.4.5,3.7.5,3.8.1,7.7-.1,11.6-.2,1.9,0,3.9-.1,5.8,0,.6,0,1.4,0,2,.6.5.5-.1,1.2-.5,1.4-2.5,1.6-5.5,2.2-8.4,2.6-1.9.3-3.7,1-4.9,2.3-.1.1-.4.2-.5,0s-.2-.4,0-.5c.7-.7,1.6-1.3,2.5-1.8,3.6-1.4,7.7-1.1,10.9-3.3.2-.1.3-.3.4-.3,0,0,0,.1,0,.1,0,0,0,0-.2,0-2.2-.5-4.7-.3-7-.3-3.9.1-7.7.4-11.6.3-1.4,0-2.8,0-4.1-.6-.2-.1-.3-.2-.5-.4-.3-.9.9-1.1,1.5-1.3,9-1.8,19.4-1.9,27.8-3.5,0,.1,0,.2,0,.2,0,0,0,0,0,0-.2-.2-.7-.3-1.1-.4-7.2-.8-14.4-.2-21.6-.3-3.9,0-7.8,0-11.7-.9-.7-.2-2-.7-1.4-1.6.4-.4.6-.3,1-.4,3.1-.5,6.3-.5,9.5-.6,7.7-.2,15.4-.3,23.1-.6,3.8-.2,7.7-.3,11.5-.9,1-.2,2-.3,2.8-.8,0,0,0,0,0,0,0,0,0,0,0,0,0,0,.1.5.2.4,0,0,0,0,0,0-10.1-1.1-20.5-.8-30.7-1.1-3.8,0-13.7-.3-17.4-.4-1.8-.1-4.1-.1-5.9-.4,0,0-.2,0-.3-.1,0,0-.4-.6-.4-.6,0-.8.9-1,1.5-1.2,3.4-.7,6.8-.8,10.2-1,11.6-.5,23.2-.6,34.8-.8,8.3-.2,16.7,0,24.9-.5,0,0,0-.1-.3.3-.2.7,0,.6,0,.7,0,0,0,0,0,0-6.7-1.3-13.7-1.2-20.5-1.5-15.4-.4-30.9-.2-46.3.2-6.8.1-16.5.9-23.1.6-.2,0-.4-.2-.4-.4,0-.2.1-.3.3-.3h0Z"/>
        </g>
      </g>
    </g>
  </g>
</svg>